<?xml version="1.0" encoding="utf-8"?>
<!-- Generator: Adobe Illustrator 21.1.0, SVG Export Plug-In . SVG Version: 6.00 Build 0)  -->
<svg version="1.1" id="Layer_1" xmlns="http://www.w3.org/2000/svg" xmlns:xlink="http://www.w3.org/1999/xlink" x="0px" y="0px"
	 viewBox="0 0 37 37" style="enable-background:new 0 0 37 37;" xml:space="preserve">
<style type="text/css">
	.st0{fill:#FFFFFF;}
	.st1{fill:#FBBB00;}
	.st2{fill:#518EF8;}
	.st3{fill:#28B446;}
	.st4{fill:#F14336;}
</style>
<circle class="st0" cx="18.5" cy="18.5" r="18.5"/>
<g>
	<path class="st1" d="M12.1,20.9l-0.8,3L8.4,24c-1.8-3.3-1.8-7.4-0.1-10.7l0,0l2.6,0.5l1.1,2.6C11.5,17.8,11.5,19.4,12.1,20.9
		L12.1,20.9z"/>
	<path class="st2" d="M29.8,16.4c0.8,4.2-0.8,8.5-4.1,11.1l0,0l-3.3-0.2L22,24.4c1.4-0.8,2.4-2,2.9-3.5h-6.2v-4.5H29.8z"/>
	<path class="st3" d="M25.7,27.5L25.7,27.5c-5,4-12.2,3.2-16.2-1.8c-0.4-0.5-0.8-1.1-1.2-1.7l3.7-3.1c1.3,3.5,5.3,5.3,8.8,4
		c0.4-0.1,0.7-0.3,1.1-0.5L25.7,27.5z"/>
	<path class="st4" d="M25.8,9.7l-3.7,3c-3.2-2-7.4-1-9.4,2.2c-0.3,0.4-0.5,0.9-0.7,1.4l-3.7-3.1l0,0c2.9-5.6,9.9-7.8,15.5-4.9
		C24.5,8.7,25.2,9.1,25.8,9.7z"/>
</g>
</svg>
