<svg xmlns="http://www.w3.org/2000/svg" viewBox="0 0 519.77 45.87"><defs><style>.cls-1{isolation:isolate;}.cls-2{fill:#4e4e4e;}.cls-3{fill:#767677;}.cls-4{fill:#f37726;}.cls-5{fill:#989798;}.cls-6{fill:#6f7070;}.cls-7{fill:#8fa6c6;mix-blend-mode:color-burn;}.cls-8{fill:#ba141a;}.cls-9{fill:#3d6c98;mix-blend-mode:multiply;}.cls-10{fill:#234572;}.cls-11{fill:#999;}</style></defs><title>logo-icgc-jupyter-notebooks2</title><g class="cls-1"><g id="Layer_1" data-name="Layer 1"><g id="Canvas"><g id="logo"><g id="Group"><g id="g"><g id="path"><g id="path0_fill" data-name="path0 fill"><path id="path0_fill-2" data-name="path0 fill" class="cls-2" d="M200.31,28.45c0,4.68-.36,6.21-1.31,7.34a5.59,5.59,0,0,1-3.81,1.49l.36,2.78a8.76,8.76,0,0,0,5.94-2.22c1.71-1.78,2.3-4.23,2.3-8V12.15H200.3V28.45Z" transform="translate(0 0)"/></g></g><g id="path-2" data-name="path"><g id="path1_fill" data-name="path1 fill"><path id="path1_fill-2" data-name="path1 fill" class="cls-2" d="M226.35,26.32c0,2,0,3.79.16,5.32h-3.05l-.2-3.2h-.08a7.24,7.24,0,0,1-2.69,2.68,7.16,7.16,0,0,1-3.66.94c-3,0-6.62-1.7-6.62-8.55V12.11h3.49V22.94c0,3.71,1.11,6.21,4.28,6.21a5,5,0,0,0,2.78-.9,5.08,5.08,0,0,0,1.82-2.3,5.26,5.26,0,0,0,.32-1.82v-12h3.49V26.32Z" transform="translate(0 0)"/></g></g><g id="path-3" data-name="path"><g id="path2_fill" data-name="path2 fill"><path id="path2_fill-2" data-name="path2 fill" class="cls-2" d="M232.93,18.49c0-2.5-.08-4.51-.16-6.4h3.13l.16,3.34h.08A7.56,7.56,0,0,1,239,12.58a7.48,7.48,0,0,1,3.93-.94c4.63,0,8.12,4,8.12,9.92,0,7-4.2,10.48-8.73,10.48A6.67,6.67,0,0,1,239,31.3,6.73,6.73,0,0,1,236.45,29h-.08v10.6h-3.45V18.49Zm3.45,5.2a8.07,8.07,0,0,0,.16,1.45,5.44,5.44,0,0,0,1.9,3,5.36,5.36,0,0,0,3.33,1.16c3.69,0,5.82-3.06,5.82-7.54,0-3.91-2-7.26-5.7-7.26a5.53,5.53,0,0,0-3.38,1.28,5.61,5.61,0,0,0-1.88,3.11,5.85,5.85,0,0,0-.24,1.45v3.34Z" transform="translate(0 0)"/></g></g><g id="path-4" data-name="path"><g id="path3_fill" data-name="path3 fill"><path id="path3_fill-2" data-name="path3 fill" class="cls-2" d="M257.25,12.13l4.2,11.53c.44,1.29.91,2.82,1.23,4h.08c.36-1.17.75-2.66,1.23-4.07l3.81-11.45h3.69l-5.23,13.91c-2.5,6.69-4.2,10.12-6.58,12.22a9.4,9.4,0,0,1-4.28,2.3l-.87-3a9.18,9.18,0,0,0,3.05-1.74,10.74,10.74,0,0,0,2.94-4,2.58,2.58,0,0,0,.28-.85,3.13,3.13,0,0,0-.24-.93l-7.09-18h3.78Z" transform="translate(0 0)"/></g></g><g id="path-5" data-name="path"><g id="path4_fill" data-name="path4 fill"><path id="path4_fill-2" data-name="path4 fill" class="cls-2" d="M280.65,6.52v5.6h5v2.7h-5V25.33c0,2.4.67,3.79,2.62,3.79a7.64,7.64,0,0,0,2-.24l.16,2.66a8.4,8.4,0,0,1-3.09.48,4.79,4.79,0,0,1-3.77-1.49c-1-1-1.35-2.78-1.35-5.08V14.82h-3v-2.7h3V7.44Z" transform="translate(0 0)"/></g></g><g id="path-6" data-name="path"><g id="path5_fill" data-name="path5 fill"><path id="path5_fill-2" data-name="path5 fill" class="cls-2" d="M292.07,22.52c.08,4.8,3.09,6.78,6.58,6.78a12.42,12.42,0,0,0,5.31-1l.6,2.54A15.3,15.3,0,0,1,298.2,32c-5.9,0-9.43-4-9.43-9.84s3.41-10.52,9-10.52c6.26,0,7.93,5.6,7.93,9.19a13.6,13.6,0,0,1-.12,1.66H292.07ZM302.3,20c0-2.26-.91-5.77-4.83-5.77-3.53,0-5.07,3.3-5.35,5.77H302.3Z" transform="translate(0 0)"/></g></g><g id="path-7" data-name="path"><g id="path6_fill" data-name="path6 fill"><path id="path6_fill-2" data-name="path6 fill" class="cls-2" d="M310.78,18.21c0-2.3,0-4.27-.16-6.09h3.05l.12,3.83H314a5.77,5.77,0,0,1,5.31-4.27,3.71,3.71,0,0,1,1,.12v3.34a5.17,5.17,0,0,0-1.19-.12c-2.46,0-4.2,1.9-4.67,4.55a10.13,10.13,0,0,0-.16,1.66v10.4h-3.45Z" transform="translate(0 0)"/></g></g></g></g><g id="g-2" data-name="g"><g id="path-8" data-name="path"><g id="path7_fill" data-name="path7 fill"><path id="path7_fill-2" data-name="path7 fill" class="cls-3" d="M182.75,3a2.72,2.72,0,0,1-.39,1.52,2.69,2.69,0,0,1-1.16,1,2.66,2.66,0,0,1-2.95-.46,2.72,2.72,0,0,1,.23-4.18,2.66,2.66,0,0,1,3.4.19A2.71,2.71,0,0,1,182.75,3Z" transform="translate(0 0)"/></g></g><g id="path-9" data-name="path"><g id="path8_fill" data-name="path8 fill"><path id="path8_fill-2" data-name="path8 fill" class="cls-4" d="M167.12,34.78c-7.14,0-13.38-2.62-16.61-6.49a17.74,17.74,0,0,0,6.43,8.62,17.48,17.48,0,0,0,20.38,0,17.74,17.74,0,0,0,6.43-8.62C180.49,32.16,174.26,34.78,167.12,34.78Z" transform="translate(0 0)"/></g></g><g id="path-10" data-name="path"><g id="path9_fill" data-name="path9 fill"><path id="path9_fill-2" data-name="path9 fill" class="cls-4" d="M167.12,9.59c7.14,0,13.38,2.62,16.61,6.49a17.74,17.74,0,0,0-6.43-8.62,17.48,17.48,0,0,0-20.38,0,17.74,17.74,0,0,0-6.43,8.62C153.74,12.21,160,9.59,167.12,9.59Z" transform="translate(0 0)"/></g></g><g id="path-11" data-name="path"><g id="path10_fill" data-name="path10 fill"><path id="path10_fill-2" data-name="path10 fill" class="cls-5" d="M157.32,42.31a3.43,3.43,0,0,1-.49,1.92,3.39,3.39,0,0,1-1.46,1.32,3.36,3.36,0,0,1-3.71-.58,3.43,3.43,0,0,1,.29-5.26,3.36,3.36,0,0,1,4.28.24,3.42,3.42,0,0,1,1.09,2.36Z" transform="translate(0 0)"/></g></g><g id="path-12" data-name="path"><g id="path11_fill" data-name="path11 fill"><path id="path11_fill-2" data-name="path11 fill" class="cls-6" d="M151.32,8.71a2,2,0,0,1-1.12-.29,2,2,0,0,1-.77-.87,2,2,0,0,1,.34-2.2,2,2,0,0,1,3.06.17,2,2,0,0,1-.14,2.53,2,2,0,0,1-1.37.64Z" transform="translate(0 0)"/></g></g></g></g></g><path class="cls-7" d="M17.22.52l.31-.06.31-.05.31,0,.31,0a5.78,5.78,0,0,0-1,.3,1.27,1.27,0,0,0-.51.34.26.26,0,0,0,0,.34,1.13,1.13,0,0,0,.5.31,5.27,5.27,0,0,0,.93.23A12.11,12.11,0,0,0,19.58,2C20,2,20.49,2,21,2s1,0,1.46-.07.95-.1,1.35-.18a8.32,8.32,0,0,0,1.06-.26,2.68,2.68,0,0,0,.69-.31c.16-.11.24-.23.23-.35s-.12-.23-.32-.34a3.36,3.36,0,0,0-.82-.27A9.86,9.86,0,0,0,23.4.07c-.47,0-1-.06-1.54-.06h.08a22.43,22.43,0,0,1,4.34.42,22,22,0,0,1,4.35,1.33A22.54,22.54,0,0,1,34,3.55l.63.42c.75.54.8.58,1.17.88a22.71,22.71,0,0,1,1.7,1.52.75.75,0,0,1,.12.16.45.45,0,0,1,.06.16.4.4,0,0,1,0,.16.53.53,0,0,1-.07.16,3,3,0,0,1-1.49.86,20.37,20.37,0,0,1-2.88.71c-1.12.21-2.41.39-3.82.55s-2.89.27-4.49.36-3.16.14-4.69.15-3,0-4.44-.06-2.79-.14-4-.27a33.92,33.92,0,0,1-3.37-.48A13.26,13.26,0,0,1,7,8.46,4.41,4.41,0,0,1,6,8a.92.92,0,0,1-.43-.46.49.49,0,0,1,.15-.49A22.11,22.11,0,0,1,8.46,4.63,21.29,21.29,0,0,1,11,2.93,21.93,21.93,0,0,1,17.22.52Z" transform="translate(0 0)"/><path class="cls-7" d="M5.58,36.36a.49.49,0,0,1-.14-.5,1,1,0,0,1,.44-.47,4.6,4.6,0,0,1,1-.43,13.69,13.69,0,0,1,1.47-.39c1-.21,2.14-.38,3.43-.51s2.64-.23,4.09-.3,3-.1,4.51-.1,3.15,0,4.76.12,3.16.19,4.56.34,2.75.33,3.89.53a20.86,20.86,0,0,1,2.94.71,3.16,3.16,0,0,1,1.54.87.56.56,0,0,1,.08.16.41.41,0,0,1,0,.16.47.47,0,0,1-.05.16.75.75,0,0,1-.12.16,22.05,22.05,0,0,1-9.8,5.93,22.23,22.23,0,0,1-3.86.75c.44,0,.85-.11,1.21-.18a6.57,6.57,0,0,0,.92-.24,2.16,2.16,0,0,0,.59-.29.47.47,0,0,0,.21-.33c0-.15-.11-.31-.32-.45a3.64,3.64,0,0,0-.91-.4,10.85,10.85,0,0,0-1.37-.31c-.52-.09-1.1-.16-1.73-.21s-1.25-.08-1.86-.08-1.21,0-1.76.06-1.08.1-1.55.18a6.92,6.92,0,0,0-1.2.3,1.56,1.56,0,0,0-.66.4.33.33,0,0,0,0,.43,1.5,1.5,0,0,0,.64.43,7.15,7.15,0,0,0,1.3.39l-.12,0-.12,0-.12,0-.12,0A22,22,0,0,1,5.58,36.36Z" transform="translate(0 0)"/><path class="cls-7" d="M3.91,9.41a.35.35,0,0,0,0,.44,1.41,1.41,0,0,0,.57.41,6.66,6.66,0,0,0,1.1.37q.66.17,1.58.32c1.08.18,2.35.33,3.75.44s2.86.19,4.43.24,3.19.07,4.86.05,3.4-.06,5.13-.14,3.41-.19,4.93-.33,3-.31,4.24-.5A28.18,28.18,0,0,0,37.75,10a4.18,4.18,0,0,0,1.77-.81.6.6,0,0,0,.09-.13.37.37,0,0,0,0-.13.32.32,0,0,0,0-.13.45.45,0,0,0-.07-.13,21.65,21.65,0,0,1,3.54,7,.08.08,0,0,1,0,.06l0,.06-.09.06-.13.06a11.69,11.69,0,0,1-2.32.44c-1.06.13-2.41.25-4,.36s-3.16.19-5,.27-3.67.14-5.69.18-4,.07-5.86.08-3.78,0-5.55,0-3.52-.06-5.1-.11S6.28,17,5,16.89q-1-.07-1.81-.15t-1.34-.18a4.84,4.84,0,0,1-.83-.2c-.19-.07-.27-.14-.25-.22h0c0-.11.07-.25.1-.36s.06-.21.22-.72c.09-.27.22-.64.25-.71.21-.58.45-1.15.72-1.72A21.77,21.77,0,0,1,3.91,9.41Z" transform="translate(0 0)"/><path class="cls-7" d="M.71,27.35c0-.08.07-.15.25-.22a4.85,4.85,0,0,1,.83-.21c.36-.07.81-.13,1.35-.19s1.13-.12,1.82-.17c1.29-.1,2.79-.18,4.42-.25s3.32-.12,5.12-.15,3.66-.05,5.57-.06,3.9,0,5.88,0,3.94.08,5.71.14,3.51.15,5,.24,2.91.21,4,.33a11.72,11.72,0,0,1,2.34.43l.13.06.09.06,0,.06a.08.08,0,0,1,0,.06h0c0,.11-.08.27-.11.38l-.11.38c-.14.45-.22.67-.38,1.12-.23.61-.48,1.2-.76,1.8a22.12,22.12,0,0,1-2,3.34A.44.44,0,0,0,40,34.4a.33.33,0,0,0,0-.13.39.39,0,0,0,0-.13.63.63,0,0,0-.1-.13A4.3,4.3,0,0,0,38,33.18a28.55,28.55,0,0,0-3.31-.65c-1.27-.19-2.72-.35-4.3-.48s-3.22-.23-5-.3-3.49-.1-5.18-.1-3.34,0-4.91.09-3.09.15-4.47.27-2.7.28-3.79.47q-.92.16-1.6.34a6.9,6.9,0,0,0-1.11.38,1.47,1.47,0,0,0-.58.42.36.36,0,0,0,0,.45s-.49-.71-1-1.57C2.49,32,2.21,31.4,2,30.84s-.49-1.14-.7-1.72c0-.12-.15-.42-.35-1.06C.84,27.85.76,27.56.71,27.35Z" transform="translate(0 0)"/><path class="cls-7" d="M.27,18.41s.09.09.29.13.48.08.87.12l1.38.1,1.85.09c1.32.05,2.85.09,4.51.12s3.37,0,5.2.06H20L26,19c2.05,0,4-.07,5.81-.12s3.58-.11,5.1-.17,3-.14,4.06-.22a20.53,20.53,0,0,0,2.41-.27l.13,0,.09,0,.05,0a0,0,0,0,0,0,0,21.68,21.68,0,0,1,.08,7.06,0,0,0,0,0,0,0l-.05,0-.09,0-.13,0A20.11,20.11,0,0,0,41,24.73c-1.1-.07-2.49-.14-4.07-.2s-3.25-.1-5.11-.14-3.76-.06-5.82-.08-4,0-6,0l-5.67,0c-1.83,0-3.6.06-5.21.1s-3.19.1-4.51.16l-1.85.11-1.38.12a8.41,8.41,0,0,0-.87.13c-.2,0-.3.09-.29.14-.07-.47-.11-.78-.15-1.25h0A21.56,21.56,0,0,1,.27,18.41Z" transform="translate(0 0)"/><path class="cls-8" d="M18.11,35h0c1.35-1.58,2.6-2.95,3-5a5.82,5.82,0,0,0-.76-4.25v0h0a12.69,12.69,0,0,0-3.29-3.43c2.33-1.64,4.4-3.24,4.12-6.68a8.44,8.44,0,0,0-2.32-4.73c-.33-.38-.63-.75-.92-1.12,1.73-1.24,3.21-2.65,3.29-5.1,0-.59-1.55-1.19-1.54-1.54a5.47,5.47,0,0,1-.18,1.22H17.18V5h2.11A7.59,7.59,0,0,1,16.78,8a7.39,7.39,0,0,1-.52-1.26h.92V6h-1.1a7.83,7.83,0,0,1-.16-1.35c0-.61-1.53-1.15-1.54-1.54A8,8,0,0,0,16.07,8l.26.32c-1.18.85-2.46,1.62-3.52,2.53-2.91,2.5-2.38,6,0,8.57a15.69,15.69,0,0,0,2.06,1.83c-.42.29-.84.59-1.25.89-3,2.19-3.81,5.68-1.36,8.61a17.92,17.92,0,0,0,3.62,3.18l.23.15a8.08,8.08,0,0,0-1.73,4.84c0,.59,1.55,1.18,1.54,1.54a8.69,8.69,0,0,1,.15-1.36h3.71c.26.54,1.47,1,1.48,1.36C21.18,38.2,19.79,36.44,18.11,35Zm-5.83-6.5c0-.06,0-.11,0-.17h7.31a6,6,0,0,1-.32,1.24H12.44A5,5,0,0,1,12.29,28.51Zm.45-2.09h6.93a8.09,8.09,0,0,1,0,1.2H12.36A4.6,4.6,0,0,1,12.74,26.41Zm.42-.73a7.42,7.42,0,0,1,.91-1.09h5.06v0a3.92,3.92,0,0,1,.4,1.07Zm5.39-1.81H14.88c.59-.48,1.21-.92,1.83-1.35A11.34,11.34,0,0,1,18.55,23.87ZM12.48,18c0-.08,0-.16-.06-.24h6.4a7.56,7.56,0,0,1-.84,1H12.84A4,4,0,0,1,12.48,18ZM14.1,12.6c.18-.18.37-.35.57-.52h2.28v-.73H15.6c.68-.49,1.4-1,2.08-1.43a8.66,8.66,0,0,1,1.84,3.27c0,.06,0,.11,0,.17H16.27v.73H19.7A5,5,0,0,1,19.25,17h-7a4.47,4.47,0,0,1,0-1H17.7v-.73H12.47A6.36,6.36,0,0,1,14.1,12.6Zm-.72,6.88h3.83c-.62.53-1.3,1-2,1.49A9.21,9.21,0,0,1,13.38,19.49ZM12.7,30.3H19a9.19,9.19,0,0,1-.66,1.09H13.4A4.37,4.37,0,0,1,12.7,30.3Zm3.13,3c-.6-.4-1.15-.78-1.65-1.19h3.57c-.3.37-.61.73-.93,1.09-.15.16-.28.33-.42.5Zm3.25,3.38H16.94a10,10,0,0,1,.92-1.35A5.57,5.57,0,0,1,19.07,36.68Zm-2.5.73h2.85a4.49,4.49,0,0,1,.23,1H16.23A7.64,7.64,0,0,1,16.57,37.4Z" transform="translate(0 0)"/><path class="cls-9" d="M5.76,7.1c.61-.64.75-.79,1.07-1.09.66-.61.8-.73,1.6-1.37A22,22,0,0,1,17.22.52a9.31,9.31,0,0,0-1.87.63,10.88,10.88,0,0,0-1.82,1.06A13.27,13.27,0,0,0,11.8,3.7a16.42,16.42,0,0,0-1.6,1.91q-1,.17-1.72.36t-1.3.38a6.2,6.2,0,0,0-.9.38A2,2,0,0,0,5.76,7.1Z" transform="translate(0 0)"/><path class="cls-9" d="M10.74,40.59a22,22,0,0,1-5.16-4.23,2,2,0,0,0,.53.38,6.15,6.15,0,0,0,.91.38q.56.19,1.32.38t1.75.36q.41.58.85,1.11t.89,1q.45.46.93.86t1,.74q.43.3.87.55t.89.45a9.51,9.51,0,0,0,.9.35,9,9,0,0,0,.91.25A22.13,22.13,0,0,1,10.74,40.59Z" transform="translate(0 0)"/><path class="cls-9" d="M.76,16.15c.18-.64.33-1.12.44-1.44h0c.08-.21.17-.49.26-.7s.18-.46.28-.69h0l.3-.68A22,22,0,0,1,3.91,9.41,1.37,1.37,0,0,1,4.39,9a5.76,5.76,0,0,1,.95-.38q.6-.19,1.45-.38t2-.37q-.42.79-.8,1.64t-.7,1.78q-.33.92-.59,1.91t-.48,2q-1.41.11-2.45.23t-1.68.23a6.89,6.89,0,0,0-1,.23C.89,16,.78,16.08.76,16.15Z" transform="translate(0 0)"/><path class="cls-9" d="M21.94,0a22.08,22.08,0,0,1,8.49,1.66A22.4,22.4,0,0,1,34,3.53a22,22,0,0,1,3.54,2.84A3.7,3.7,0,0,0,36,5.68a20.87,20.87,0,0,0-2.93-.58c-1.22-.17-2.64-.3-4.23-.39s-3.37-.14-5.24-.13c-.13-.77-.26-1.45-.4-2a12,12,0,0,0-.43-1.43,3.3,3.3,0,0,0-.44-.84A.59.59,0,0,0,21.94,0Z" transform="translate(0 0)"/><path class="cls-9" d="M37.94,36.88a22,22,0,0,1-6.14,4.51,22,22,0,0,1-7.52,2.17l-.49,0-.51,0-.54,0h-.56a.53.53,0,0,0,.21-.12,1.28,1.28,0,0,0,.21-.25,2.93,2.93,0,0,0,.21-.39q.11-.23.21-.53t.2-.67q.1-.37.2-.81t.19-1q.09-.52.18-1.1c1.91,0,3.72-.07,5.36-.17s3.08-.25,4.32-.43a20.79,20.79,0,0,0,3-.62A3.62,3.62,0,0,0,37.94,36.88Z" transform="translate(0 0)"/><path class="cls-9" d="M39.57,8.7A21.8,21.8,0,0,1,41.65,12a21.51,21.51,0,0,1,1.46,3.67c0-.14-.47-.28-1.27-.4s-2.06-.25-3.64-.34-3.62-.18-5.91-.23-4.92-.08-7.7-.07q-.05-1.11-.12-2.17t-.15-2q-.08-1-.17-1.86T24,6.89c2.19,0,4.24,0,6.11.13s3.47.23,4.84.4A23,23,0,0,1,38.13,8,2.92,2.92,0,0,1,39.57,8.7Z" transform="translate(0 0)"/><path class="cls-9" d="M3.78,34.06A21.89,21.89,0,0,1,2,30.84c-.1-.21-.39-.85-.7-1.72-.15-.42-.22-.65-.35-1.06h0l-.1-.36c0-.11-.06-.25-.1-.36,0,.07.13.15.35.22a6.79,6.79,0,0,0,1,.22q.67.11,1.69.22t2.46.21q.2,1,.47,2t.58,1.9q.32.92.69,1.78t.78,1.65q-1.14-.17-2-.36t-1.47-.38a5.73,5.73,0,0,1-1-.38A1.36,1.36,0,0,1,3.78,34.06Z" transform="translate(0 0)"/><path class="cls-9" d="M43.25,27.52a22.13,22.13,0,0,1-.74,2.24s-.24.62-.62,1.43a22.46,22.46,0,0,1-2,3.34,2.88,2.88,0,0,1-1.44.72,22.9,22.9,0,0,1-3.24.62c-1.39.18-3,.34-4.9.44s-4,.17-6.2.18q.09-.82.17-1.71t.15-1.88q.07-1,.13-2t.1-2.17c2.79,0,5.4-.05,7.74-.13s4.29-.17,5.93-.28,2.82-.24,3.65-.38S43.21,27.66,43.25,27.52Z" transform="translate(0 0)"/><path class="cls-9" d="M0,21.91a21.93,21.93,0,0,1,.27-3.5s.11-.09.32-.13.54-.09,1-.14,1-.1,1.71-.14l2.52-.14q-.06.49-.1,1t-.07,1q0,.51,0,1t0,1q0,.47,0,.94t0,.93q0,.46.07.92t.09.91l-2.52-.13c-.69,0-1.27-.09-1.72-.14s-.77-.09-1-.14-.32-.09-.32-.13A21.64,21.64,0,0,1,0,21.91Z" transform="translate(0 0)"/><path class="cls-9" d="M43.67,18.07a21.68,21.68,0,0,1,.08,7.06c0,.09-.43.18-1.23.26s-2.08.17-3.71.24-3.73.14-6.09.18-5.1.08-8,.09q0-.49,0-1t0-1q0-.5,0-1t0-1q0-.57,0-1.13t0-1.12q0-.55,0-1.1t0-1.08c2.87,0,5.56,0,8,0s4.4.07,6.07.13,2.86.13,3.7.21S43.65,18,43.67,18.07Z" transform="translate(0 0)"/><path class="cls-10" d="M53.68,8.41h5.43V33.09H53.68Z" transform="translate(0 0)"/><path class="cls-10" d="M62.78,20.82v-.07A12.54,12.54,0,0,1,75.65,8a12.73,12.73,0,0,1,9.73,3.81l-3.45,4A9.11,9.11,0,0,0,75.61,13c-4.16,0-7.16,3.45-7.16,7.69v.07c0,4.23,2.93,7.76,7.16,7.76,2.82,0,4.55-1.13,6.49-2.89l3.46,3.49a12.61,12.61,0,0,1-10.12,4.41A12.46,12.46,0,0,1,62.78,20.82Z" transform="translate(0 0)"/><path class="cls-10" d="M86.68,20.82v-.07A12.67,12.67,0,0,1,99.62,8a13.55,13.55,0,0,1,9.69,3.38L105.9,15.5A9.09,9.09,0,0,0,99.44,13c-3.95,0-7.09,3.49-7.09,7.69v.07c0,4.51,3.1,7.83,7.47,7.83a8.66,8.66,0,0,0,5.11-1.48V23.57H99.48V18.88H110.2V29.6a16,16,0,0,1-10.54,3.91C92,33.51,86.68,28.12,86.68,20.82Z" transform="translate(0 0)"/><path class="cls-10" d="M112.91,20.82v-.07A12.54,12.54,0,0,1,125.78,8a12.73,12.73,0,0,1,9.73,3.81l-3.45,4A9.11,9.11,0,0,0,125.74,13c-4.16,0-7.16,3.45-7.16,7.69v.07c0,4.23,2.93,7.76,7.16,7.76,2.82,0,4.55-1.13,6.49-2.89l3.46,3.49a12.61,12.61,0,0,1-10.12,4.41A12.46,12.46,0,0,1,112.91,20.82Z" transform="translate(0 0)"/><path class="cls-11" d="M328.58,12.09h2.87v3.36a7.31,7.31,0,0,1,6.61-3.77c4.67,0,7.39,3.14,7.39,7.73v12h-2.87V20.12c0-3.58-1.94-5.82-5.34-5.82a5.68,5.68,0,0,0-5.79,6v11h-2.87Z" transform="translate(0 0)"/><path class="cls-11" d="M350.37,21.83v-.07a10.06,10.06,0,0,1,20.12-.07v.07a10,10,0,0,1-10.12,10.08A9.89,9.89,0,0,1,350.37,21.83Zm17.17,0v-.07a7.3,7.3,0,0,0-7.17-7.54c-4.18,0-7.05,3.4-7.05,7.46v.07a7.24,7.24,0,0,0,7.13,7.5A7.12,7.12,0,0,0,367.54,21.83Z" transform="translate(0 0)"/><path class="cls-11" d="M376.68,26.28V14.63H374V12.09h2.69V6.27h2.87v5.82h6.12v2.54h-6.12V25.9c0,2.35,1.31,3.21,3.25,3.21a6,6,0,0,0,2.8-.67V30.9a7.23,7.23,0,0,1-3.47.82C379,31.72,376.68,30.19,376.68,26.28Z" transform="translate(0 0)"/><path class="cls-11" d="M398.7,29.34a8,8,0,0,0,6.08-2.72l1.79,1.6a10,10,0,0,1-8,3.62c-5.3,0-9.63-4.07-9.63-10.08,0-5.6,3.92-10.08,9.26-10.08,5.71,0,9,4.55,9,10.23,0,.26,0,.56,0,1h-15.3A6.74,6.74,0,0,0,398.7,29.34Zm5.64-8.73c-.34-3.51-2.35-6.49-6.16-6.49-3.32,0-5.86,2.76-6.27,6.49Z" transform="translate(0 0)"/><path class="cls-11" d="M415.16,27.69v3.7h-2.87V4.14h2.87V16c1.57-2.31,3.84-4.29,7.39-4.29,4.63,0,9.22,3.66,9.22,10v.07c0,6.31-4.55,10-9.22,10A8.7,8.7,0,0,1,415.16,27.69Zm13.66-5.9v-.07c0-4.55-3.14-7.46-6.79-7.46a7.2,7.2,0,0,0-7,7.43v.07a7.18,7.18,0,0,0,7,7.46C425.76,29.22,428.82,26.46,428.82,21.8Z" transform="translate(0 0)"/><path class="cls-11" d="M435.87,21.83v-.07A10.06,10.06,0,0,1,456,21.68v.07a10,10,0,0,1-10.12,10.08A9.89,9.89,0,0,1,435.87,21.83Zm17.17,0v-.07a7.3,7.3,0,0,0-7.17-7.54c-4.18,0-7.05,3.4-7.05,7.46v.07a7.24,7.24,0,0,0,7.13,7.5A7.12,7.12,0,0,0,453,21.83Z" transform="translate(0 0)"/><path class="cls-11" d="M460,21.83v-.07a10.06,10.06,0,0,1,20.12-.07v.07A10,10,0,0,1,470,31.84,9.89,9.89,0,0,1,460,21.83Zm17.17,0v-.07A7.3,7.3,0,0,0,470,14.22c-4.18,0-7.05,3.4-7.05,7.46v.07a7.24,7.24,0,0,0,7.13,7.5A7.12,7.12,0,0,0,477.15,21.83Z" transform="translate(0 0)"/><path class="cls-11" d="M485.28,4.14h2.87V23l10.41-10.86h3.58l-8.1,8.29,8.36,11H499l-6.9-9-3.92,4v5h-2.87Z" transform="translate(0 0)"/><path class="cls-11" d="M504.91,28.93l1.46-2.05A11.28,11.28,0,0,0,513,29.34c2.31,0,4-1.19,4-3.06V26.2c0-1.94-2.28-2.69-4.81-3.4-3-.86-6.38-1.9-6.38-5.45v-.07c0-3.32,2.76-5.52,6.57-5.52a13.19,13.19,0,0,1,6.94,2.13L518,16a10.91,10.91,0,0,0-5.71-1.87c-2.28,0-3.73,1.19-3.73,2.8v.07c0,1.83,2.39,2.54,5,3.32,3,.9,6.2,2.05,6.2,5.52V26c0,3.66-3,5.79-6.87,5.79A13.27,13.27,0,0,1,504.91,28.93Z" transform="translate(0 0)"/></g></g></svg>