<svg id="Layer_1" data-name="Layer 1" xmlns="http://www.w3.org/2000/svg" xmlns:xlink="http://www.w3.org/1999/xlink" viewBox="0 0 349.69 150.21"><defs><style>.cls-1,.cls-2{fill:none;stroke-width:1.47px;}.cls-1{stroke:url(#linear-gradient);}.cls-2{stroke:url(#linear-gradient-2);}.cls-3{fill:#e46e2e;}.cls-4{fill:#767474;}.cls-5{fill:#313940;}.cls-6{fill:#999;}</style><linearGradient id="linear-gradient" x1="-454.55" y1="-941.27" x2="-455.55" y2="-941.31" gradientTransform="translate(158636.67 82298.74) scale(348.23 87.36)" gradientUnits="userSpaceOnUse"><stop offset="0" stop-color="#979797"/><stop offset="0.23" stop-color="#f1f1f1"/><stop offset="0.51" stop-color="#fff"/><stop offset="1" stop-color="#979797"/></linearGradient><linearGradient id="linear-gradient-2" x1="-454.55" y1="-941.27" x2="-455.55" y2="-941.31" gradientTransform="translate(158636.67 82298.74) scale(348.23 87.36)" gradientUnits="userSpaceOnUse"><stop offset="0" stop-color="#979797"/><stop offset="0.2" stop-color="#f1f1f1"/><stop offset="0.57" stop-color="#fff"/><stop offset="1" stop-color="#979797"/></linearGradient></defs><title>logo-jupyterhub</title><g id="Page-1"><g id="Home---Desktop-Copy-2"><g id="Group"><g id="Group-Copy-2"><path id="Oval-7-Copy-2" class="cls-1" d="M189,91.7C284.9,73,356.6,45.5,349.3,30.2s-91-12.6-186.9,6.1S-5.2,82.5,2.1,97.8s91,12.6,186.9-6.1Z" transform="translate(-0.86 -0.29)"/><path id="Oval-7-Copy-3" class="cls-2" d="M189,91.7C284.9,73,356.6,45.5,349.3,30.2s-91-12.6-186.9,6.1S-5.2,82.5,2.1,97.8s91,12.6,186.9-6.1Z" transform="translate(-0.86 -0.29)"/><path id="Fill-9" class="cls-3" d="M182,118.9c-24.6,0-46-8.8-57.2-21.9a60.79,60.79,0,0,0,114.4,0c-11.2,13.1-32.6,21.9-57.2,21.9" transform="translate(-0.86 -0.29)"/><path id="Fill-10" class="cls-3" d="M181.6,33.6c24.6,0,46,8.8,57.2,21.9a60.79,60.79,0,0,0-114.4,0c11.2-13.1,32.6-21.9,57.2-21.9" transform="translate(-0.86 -0.29)"/><path id="Fill-11" class="cls-4" d="M138.9,150.5a9.56,9.56,0,1,1,9.1-10A9.66,9.66,0,0,1,138.9,150.5Z" transform="translate(-0.86 -0.29)"/><path id="Fill-12" class="cls-4" d="M131.5,26a6,6,0,1,1,5.7-6.2A6,6,0,0,1,131.5,26Z" transform="translate(-0.86 -0.29)"/><path id="Fill-8" class="cls-4" d="M226.4,18.9a9.42,9.42,0,0,1-9.7-8.9,9.31,9.31,0,1,1,9.7,8.9Z" transform="translate(-0.86 -0.29)"/><g id="Group-Copy-_-hub" data-name="Group-Copy-+-hub"><g id="Group-Copy"><path id="Fill-1" class="cls-5" d="M71,83.77c0,5.5-.4,7.3-1.6,8.6a7.15,7.15,0,0,1-4.6,1.8l.4,3.3a11.21,11.21,0,0,0,7.2-2.6c2.1-2.1,2.8-5,2.8-9.4V64.57H71v19.2" transform="translate(-0.86 -0.29)"/><path id="Fill-2" class="cls-5" d="M102.4,81.27a60.23,60.23,0,0,0,.2,6.3H98.9l-.2-3.8h-.1a8.61,8.61,0,0,1-7.7,4.3c-3.6,0-8-2-8-10.1V64.57h4.2v12.7c0,4.4,1.3,7.3,5.2,7.3a5.9,5.9,0,0,0,5.5-3.8,7.12,7.12,0,0,0,.4-2.1V64.57h4.2v16.7" transform="translate(-0.86 -0.29)"/><path id="Fill-3" class="cls-5" d="M110.4,72.07c0-2.9-.1-5.3-.2-7.5H114l.2,3.9h.1a9.05,9.05,0,0,1,8.2-4.5c5.6,0,9.8,4.7,9.8,11.7,0,8.3-5.1,12.3-10.5,12.3a8,8,0,0,1-7.1-3.6h-.1v12.5h-4.2V72.07Zm4.1,6.1a8.81,8.81,0,0,0,.2,1.7,6.52,6.52,0,0,0,6.3,4.9c4.4,0,7-3.6,7-8.9,0-4.6-2.4-8.5-6.9-8.5a6.75,6.75,0,0,0-6.4,5.2,8.58,8.58,0,0,0-.3,1.7v3.9Z" transform="translate(-0.86 -0.29)"/><path id="Fill-4" class="cls-5" d="M139.8,64.57l5.1,13.6c.5,1.5,1.1,3.3,1.5,4.7h.1c.4-1.4.9-3.1,1.5-4.8l4.6-13.5H157L150.7,81c-3,7.9-5.1,11.9-7.9,14.4a11.61,11.61,0,0,1-5.2,2.7l-1.1-3.5a11.33,11.33,0,0,0,3.7-2,12.23,12.23,0,0,0,3.5-4.7,2.65,2.65,0,0,0,.3-1,3.63,3.63,0,0,0-.3-1.1l-8.6-21.2h4.7" transform="translate(-0.86 -0.29)"/><path id="Fill-5" class="cls-5" d="M168,58v6.6h6v3.2h-6v12.4c0,2.8.8,4.5,3.2,4.5a7,7,0,0,0,2.4-.3l.2,3.1a10.88,10.88,0,0,1-3.7.6,5.52,5.52,0,0,1-4.5-1.8c-1.2-1.2-1.6-3.3-1.6-6V67.77h-3.6v-3.2H164v-5.5l4-1.1" transform="translate(-0.86 -0.29)"/><path id="Fill-6" class="cls-5" d="M181.8,76.87c.1,5.7,3.7,8,7.9,8a14.82,14.82,0,0,0,6.4-1.2l.7,3a18.36,18.36,0,0,1-7.7,1.4c-7.1,0-11.4-4.7-11.4-11.6s4.1-12.4,10.9-12.4c7.6,0,9.6,6.6,9.6,10.8,0,.9-.1,1.5-.1,1.9H181.8Zm12.3-3c0-2.7-1.1-6.8-5.8-6.8-4.3,0-6.1,3.9-6.5,6.8Z" transform="translate(-0.86 -0.29)"/><path id="Fill-7" class="cls-5" d="M204.4,71.77c0-2.7,0-5-.2-7.2h3.7l.1,4.5h.2c1.1-3.1,3.6-5,6.4-5a4.48,4.48,0,0,1,1.2.1v3.9a6.15,6.15,0,0,0-1.4-.1c-3,0-5.1,2.2-5.6,5.4a11.08,11.08,0,0,0-.2,1.9v12.3h-4.2V71.77" transform="translate(-0.86 -0.29)"/></g><path id="hub" class="cls-6" d="M223.4,87.5h4.1V73.8a4.23,4.23,0,0,1,.3-2,6,6,0,0,1,5.5-4.1c3.9,0,5.2,3.1,5.2,6.7v13h4.1V73.9c0-7.8-4.9-9.7-7.9-9.7a8.56,8.56,0,0,0-4.2,1.2,6.76,6.76,0,0,0-2.9,2.9h-.1V54.2h-4.1Zm44.9-22.6h-4.1V78.8a4.92,4.92,0,0,1-.4,2.1,5.93,5.93,0,0,1-5.4,3.7c-3.7,0-5.1-2.9-5.1-7.2V64.9h-4.1V78.1c0,7.9,4.3,9.9,7.8,9.9a8.66,8.66,0,0,0,7.5-4.2h.1l.2,3.7h3.6c-.1-1.8-.2-3.8-.2-6.2V64.9Zm10.2,22.6.2-3.7h.1a8.11,8.11,0,0,0,7.6,4.3c5.1,0,10.1-4,10.1-12.1,0-6.9-3.9-11.5-9.5-11.5-3.6,0-6.3,1.6-7.7,4.2h-.1V54.5h-4.1V81.9c0,2-.1,4.3-.2,5.8h3.6Zm.7-13.1a7.93,7.93,0,0,1,.2-1.7,6.65,6.65,0,0,1,6.3-5.1c4.4,0,6.7,3.9,6.7,8.4,0,5.2-2.6,8.7-6.9,8.7a6.42,6.42,0,0,1-6.2-4.8,7.72,7.72,0,0,1-.2-1.5v-4Z" transform="translate(-0.86 -0.29)"/></g></g></g></g></g></svg>